<?xml version="1.0" encoding="UTF-8" standalone="no"?>
<!DOCTYPE svg PUBLIC "-//W3C//DTD SVG 1.1//EN" "http://www.w3.org/Graphics/SVG/1.1/DTD/svg11.dtd">

<!-- Created with Vectornator (http://vectornator.io/) -->
<svg height="100%" stroke-miterlimit="10" style="fill-rule:nonzero;clip-rule:evenodd;stroke-linecap:round;stroke-linejoin:round;" version="1.1" viewBox="0 0 48 48" width="100%" xml:space="preserve" xmlns="http://www.w3.org/2000/svg" xmlns:vectornator="http://vectornator.io" xmlns:xlink="http://www.w3.org/1999/xlink">
<defs/>
<g id="Layer-1" vectornator:layerName="Layer 1">
<path d="M16.0084 27.3455L3.72756 32.1925L14.508 37.7616L35.8512 39.6878L44.2724 31.6834L38.155 27.5591L38.5279 29.0206L24.1155 32.8203L15.1794 29.2609L16.0084 27.3455Z" fill="#33336b" fill-rule="evenodd" opacity="1" stroke="none"/>
<path d="M24.3729 29.3883L37.9303 26.6784L37.4232 24.6905L24.1829 27.2305L24.3729 29.3883Z" fill="#522c02" fill-rule="evenodd" opacity="1" stroke="none"/>
<path d="M24.3729 29.3883L24.1155 32.8203L15.1794 29.2609L16.4543 26.3152L24.3729 29.3883Z" fill="#0b0b6c" fill-rule="evenodd" opacity="1" stroke="none"/>
<path d="M24.1829 27.2305L21.5207 21.6283L17.1415 24.7276L24.1829 27.2305Z" fill="#181882" fill-rule="evenodd" opacity="1" stroke="none"/>
<path d="M21.5207 21.6283L21.2945 15.1318L17.1415 24.7276L21.5207 21.6283Z" fill="#121256" fill-rule="evenodd" opacity="1" stroke="none"/>
<path d="M28.641 20.9909L21.5207 21.6283L24.1829 27.2305L28.641 20.9909Z" fill="#32326f" fill-rule="evenodd" opacity="1" stroke="none"/>
<path d="M28.641 20.9909L37.4232 24.6905L24.1829 27.2305L28.641 20.9909Z" fill="#47477b" fill-rule="evenodd" opacity="1" stroke="none"/>
<path d="M34.4697 13.1133L28.641 20.9909L37.4232 24.6905L34.4697 13.1133Z" fill="#494990" fill-rule="evenodd" opacity="1" stroke="none"/>
<path d="M21.5207 21.6283L34.4697 13.1133L28.641 20.9909L21.5207 21.6283Z" fill="#1d1da6" fill-rule="evenodd" opacity="1" stroke="none"/>
<path d="M21.2945 15.1318L34.4697 13.1133L21.5207 21.6283L21.2945 15.1318Z" fill="#2727b8" fill-rule="evenodd" opacity="1" stroke="none"/>
<path d="M21.2945 15.1318L20.6289 8.31216L34.4697 13.1133L21.2945 15.1318Z" fill="#6565c4" fill-rule="evenodd" opacity="1" stroke="none"/>
<path d="M21.2945 15.1318L10.4601 8.33739L20.6289 8.31216L21.2945 15.1318Z" fill="#7272e1" fill-rule="evenodd" opacity="1" stroke="none"/>
<path d="M24.3729 29.3883L24.1155 32.8203L38.5279 29.0206L37.9303 26.6784L24.3729 29.3883Z" fill="#3939c2" fill-rule="evenodd" opacity="1" stroke="none"/>
<path d="M24.1829 27.2305L24.3729 29.3883L16.4543 26.3152L17.1415 24.7276L24.1829 27.2305Z" fill="#392103" fill-rule="evenodd" opacity="1" stroke="none"/>
</g>
</svg>
