<?xml version="1.0" encoding="UTF-8" standalone="no"?>
<!DOCTYPE svg PUBLIC "-//W3C//DTD SVG 1.1//EN" "http://www.w3.org/Graphics/SVG/1.1/DTD/svg11.dtd">

<!-- Created with Vectornator (http://vectornator.io/) -->
<svg height="100%" stroke-miterlimit="10" style="fill-rule:nonzero;clip-rule:evenodd;stroke-linecap:round;stroke-linejoin:round;" version="1.1" viewBox="0 0 1024 1024" width="100%" xml:space="preserve" xmlns="http://www.w3.org/2000/svg" xmlns:vectornator="http://vectornator.io" xmlns:xlink="http://www.w3.org/1999/xlink">
<metadata>
<vectornator:setting key="IsTimeLapseWatermarkDisabled" value="false"/>
<vectornator:setting key="UndoHistoryDisabled" value="false"/>
<vectornator:setting key="VNDimensionsVisible" value="true"/>
<vectornator:setting key="VNSnapToGuides" value="true"/>
<vectornator:setting key="WDCMYKEnabledKey" value="false"/>
<vectornator:setting key="WDDisplayWhiteBackground" value="false"/>
<vectornator:setting key="WDDynamicGuides" value="true"/>
<vectornator:setting key="WDGuidesVisible" value="true"/>
<vectornator:setting key="WDIsolateActiveLayer" value="false"/>
<vectornator:setting key="WDOutlineMode" value="false"/>
<vectornator:setting key="WDRulersVisible" value="true"/>
<vectornator:setting key="WDSnapToEdges" value="true"/>
<vectornator:setting key="WDSnapToGrid" value="true"/>
<vectornator:setting key="WDSnapToPoints" value="true"/>
<vectornator:setting key="WDUnits" value="Pixels"/>
</metadata>
<defs/>
<clipPath id="ArtboardFrame">
<rect height="1024" width="1024" x="0" y="0"/>
</clipPath>
<g clip-path="url(#ArtboardFrame)" id="Layer-1" vectornator:layerName="Layer 1">
<path d="M0 0L1024 0L1024 1024L0 1024L0 0Z" fill="#060017" fill-rule="evenodd" opacity="1" stroke="none"/>
<path d="M1135.96 743.898C1128.89 756.988 1121.49 769.909 1114.74 783.167C1111.93 788.672 1111.02 795.205 1107.31 800.148C1105.6 802.43 1108.02 794.488 1108.37 791.658" fill="#6b007e" fill-rule="evenodd" opacity="1" stroke="#0d9199" stroke-linecap="round" stroke-linejoin="round" stroke-opacity="0.994601" stroke-width="64.9231"/>
<path d="M313.249 702.219C505.201 365.69 569.088 372.723 836.013 408.164C997.731 429.637 788.638 560.227 657.946 633.741C527.255 707.254 298.277 728.467 313.249 702.219Z" fill="#6b007e" fill-rule="evenodd" opacity="1" stroke="#3e0049" stroke-linecap="round" stroke-linejoin="round" stroke-width="64.9231"/>
<path d="M711.976 481.115C711.976 467.705 723.249 456.834 737.156 456.834C751.063 456.834 762.337 467.705 762.337 481.115C762.337 494.526 751.063 505.397 737.156 505.397C723.249 505.397 711.976 494.526 711.976 481.115Z" fill="#000000" fill-rule="evenodd" opacity="1" stroke="none"/>
<path d="M339.604 687.717C339.604 687.717 282.85 610.563 140.52 611.897C109.63 612.186 227.869 740.481 227.869 740.481C227.869 740.481 172.61 917.374 197.275 898.773C330.737 798.123 339.604 687.717 339.604 687.717Z" fill="#6b007e" fill-rule="evenodd" opacity="1" stroke="#3e0049" stroke-linecap="round" stroke-linejoin="round" stroke-width="64.9231"/>
<path d="M738.288 466.926L753.92 483.086C753.92 483.086 756.35 475.402 752.442 471.362C748.533 467.322 738.288 466.926 738.288 466.926Z" fill="#ffffff" fill-rule="evenodd" opacity="1" stroke="none"/>
<path d="M112.596 192.021C112.596 127.655 166.272 75.4756 232.484 75.4756C298.696 75.4756 352.371 127.655 352.371 192.021C352.371 256.388 298.696 308.567 232.484 308.567C166.272 308.567 112.596 256.388 112.596 192.021Z" fill="#2d00a5" fill-rule="evenodd" opacity="1" stroke="none"/>
<path d="M256.49 109.733C256.49 109.733 305.595 134.367 316.342 169.462C327.09 204.558 299.479 250.115 299.479 250.115C299.479 250.115 304.52 215.02 293.773 179.924C283.026 144.829 256.49 109.733 256.49 109.733Z" fill="#7747f6" fill-rule="evenodd" opacity="1" stroke="none"/>
<path d="M184.89 488.089C184.89 441.899 225.043 404.455 274.575 404.455C324.107 404.455 364.261 441.899 364.261 488.089C364.261 534.279 324.107 571.724 274.575 571.724C225.043 571.724 184.89 534.279 184.89 488.089Z" fill="#2d00a5" fill-rule="evenodd" opacity="1" stroke="none"/>
<path d="M293.567 442.891C293.567 442.891 341.228 456.048 346.196 478.872C351.163 501.695 313.437 534.186 313.437 534.186C313.437 534.186 332.788 512.659 327.82 489.836C322.852 467.012 293.567 442.891 293.567 442.891" fill="#7747f6" fill-rule="evenodd" opacity="1" stroke="none"/>
<path d="M595.334 216.709C595.334 165.977 638.567 124.85 691.898 124.85C745.228 124.85 788.461 165.977 788.461 216.709C788.461 267.441 745.228 308.567 691.898 308.567C638.567 308.567 595.334 267.441 595.334 216.709Z" fill="#2d00a5" fill-rule="evenodd" opacity="1" stroke="none"/>
<path d="M720.661 176.625C720.661 176.625 755.075 193.267 758.465 216.894C761.855 240.521 734.221 271.134 734.221 271.134C734.221 271.134 743.197 240.336 739.807 216.709C736.417 193.082 720.661 176.625 720.661 176.625Z" fill="#7747f6" fill-rule="evenodd" opacity="1" stroke="none"/>
<path d="M595.334 838.405C595.334 786.21 646.29 743.898 709.146 743.898C772.003 743.898 822.958 786.21 822.958 838.405C822.958 890.6 772.003 932.912 709.146 932.912C646.29 932.912 595.334 890.6 595.334 838.405Z" fill="#2d00a5" fill-rule="evenodd" opacity="1" stroke="none"/>
<path d="M740.167 785.474C740.167 785.474 780.986 798.68 789.39 825.893C797.794 853.105 773.783 894.325 773.783 894.325C773.783 894.325 773.783 871.114 765.379 843.901C756.975 816.688 740.167 785.474 740.167 785.474Z" fill="#7747f6" fill-rule="evenodd" opacity="1" stroke="none"/>
</g>
</svg>
